<?xml version="1.0" encoding="UTF-8" standalone="no"?>
<!-- Generator: Adobe Illustrator 27.5.0, SVG Export Plug-In . SVG Version: 6.00 Build 0)  -->

<svg
   version="1.1"
   x="0px"
   y="0px"
   viewBox="0 0 65.836449 127.89716"
   xml:space="preserve"
   id="svg183"
   width="65.836449"
   height="127.89716"
   xmlns="http://www.w3.org/2000/svg"
   xmlns:svg="http://www.w3.org/2000/svg"><defs
   id="defs183" />

<g
   id="g113"
   transform="translate(-360.54189,-328.84)">
		
			<linearGradient
   id="SVGID_00000022555272061797448230000005631451761428898688_"
   gradientUnits="userSpaceOnUse"
   x1="407.5784"
   y1="436.0437"
   x2="420.85049"
   y2="420.44189">
			<stop
   offset="0"
   style="stop-color:#FF9D3B"
   id="stop95" />
			<stop
   offset="1"
   style="stop-color:#FF833B"
   id="stop96" />
		</linearGradient>
		<path
   style="fill:url(#SVGID_00000022555272061797448230000005631451761428898688_)"
   d="m 418.558,411.86 c 4.096,1.129 6.484,4.01 7.131,6.494 0.647,2.484 -2.117,10.166 -2.117,10.166 l -8.119,-1.482 z"
   id="path96" />
		<g
   id="g99">
			
				<linearGradient
   id="SVGID_00000011730934544922848790000011245087714648257435_"
   gradientUnits="userSpaceOnUse"
   x1="379.76682"
   y1="422.5947"
   x2="380.79361"
   y2="435.23209">
				<stop
   offset="0"
   style="stop-color:#FF833B"
   id="stop97" />
				<stop
   offset="1"
   style="stop-color:#E8592A"
   id="stop98" />
			</linearGradient>
			<path
   style="fill:url(#SVGID_00000011730934544922848790000011245087714648257435_)"
   d="m 373.448,416.166 c 0,0 0.162,3.666 0.338,8.02 1.422,1.962 4.369,5.61 8.264,8.341 1.234,-6.257 3.305,-16.36 3.305,-16.36 h -11.907 z"
   id="path98" />
			<path
   style="fill:#6b3022"
   d="m 373.786,424.185 c 0.236,5.869 0.496,12.993 0.414,14.101 -0.141,1.929 -1.363,4.801 -0.752,5.554 0.611,0.752 3.67,2.022 5.129,0.8 1.461,-1.224 2.307,-5.459 2.59,-7.436 0.076,-0.537 0.422,-2.34 0.883,-4.677 -3.895,-2.731 -6.842,-6.38 -8.264,-8.342 z"
   id="path99" />
		</g>
		
			<linearGradient
   id="SVGID_00000129175240334773183620000015480138072592757424_"
   gradientUnits="userSpaceOnUse"
   x1="376.47971"
   y1="335.33301"
   x2="377.3974"
   y2="346.62799">
			<stop
   offset="0"
   style="stop-color:#FF833B"
   id="stop99" />
			<stop
   offset="1"
   style="stop-color:#E8592A"
   id="stop100" />
		</linearGradient>
		<path
   style="fill:url(#SVGID_00000129175240334773183620000015480138072592757424_)"
   d="m 380.013,328.84 c -2.752,2.33 -9.105,18.143 -8.965,26.896 l 13.131,-3.389 c 0.918,-5.647 -0.284,-16.801 -4.166,-23.507 z"
   id="path100" />
		
			<linearGradient
   id="SVGID_00000145056482220758278180000000307421030348560523_"
   gradientUnits="userSpaceOnUse"
   x1="393.7923"
   y1="393.18381"
   x2="407.70541"
   y2="437.82181">
			<stop
   offset="0"
   style="stop-color:#FF833B"
   id="stop101" />
			<stop
   offset="1"
   style="stop-color:#E8592A"
   id="stop102" />
		</linearGradient>
		<path
   style="fill:url(#SVGID_00000145056482220758278180000000307421030348560523_)"
   d="m 415.005,399.317 c -4.52,-4.612 -16.756,-10.919 -19.861,-23.155 1.506,0.941 2.354,0.941 2.354,0.941 0,0 -1.318,-6.307 -1.648,-7.295 2.119,1.129 1.932,0.423 1.932,0.423 l -1.742,-10.683 c 0,0 2.541,-4.659 4.283,-9.931 2.377,-7.193 1.869,-6.896 2.541,-15.437 0,0 -9.035,5.177 -16.273,14.361 -1.234,-0.315 -4.031,-0.939 -6.6,-0.431 -4.754,0.941 -8.705,5.459 -10.775,8 -2.072,2.542 -2.355,4.943 -2.449,6.167 -0.094,1.223 0.094,3.952 -0.895,5.553 -0.988,1.601 -4.846,6.964 -4.846,8.142 0,1.177 2.352,4.002 4.094,3.906 1.742,-0.095 12.707,-3.436 12.707,-3.436 0,0 5.459,50.265 5.646,53.276 0.188,3.011 0.941,12.518 1.225,15.153 0.281,2.637 -0.471,2.732 1.883,3.201 2.352,0.47 4.799,-0.847 4.988,-1.883 0.012,-0.065 0.031,-0.192 0.059,-0.369 0.35,0.161 0.766,0.233 1.258,0.181 2.637,-0.282 16.473,-11.766 21.555,-16.283 5.084,-4.519 6.402,-7.624 6.402,-13.461 -0.002,-5.833 -1.321,-12.328 -5.838,-16.94 z m -22.233,38.637 c 0.619,-4.317 1.242,-8.705 1.242,-8.705 0,0 1.506,3.012 2.07,3.482 0.333,0.278 -1.583,2.868 -3.312,5.223 z"
   id="path102" />
		
			<linearGradient
   id="SVGID_00000015339709686849948160000010607432352679410054_"
   gradientUnits="userSpaceOnUse"
   x1="380.3168"
   y1="378.39569"
   x2="379.18729"
   y2="392.51489">
			<stop
   offset="0"
   style="stop-color:#EBBA9B"
   id="stop103" />
			<stop
   offset="1"
   style="stop-color:#FFD2A8"
   id="stop104" />
		</linearGradient>
		<path
   style="fill:url(#SVGID_00000015339709686849948160000010607432352679410054_)"
   d="m 372.317,377.975 -0.811,2.436 c -3.283,1.094 -6.107,5.329 -6.107,5.329 1.094,0.459 3.637,0 3.637,0 0,0 -3.389,3.883 -4.836,9.849 -1.447,5.965 0,11.472 0,11.472 0,0 1.728,-1.307 2.117,-2.189 -0.07,4.307 2.225,13.66 6,16.66 0.637,-2.576 0.637,-2.576 0.637,-2.576 0,0 3.809,8.895 10.553,11.295 -0.105,-4.482 0.107,-10.131 0.918,-14.613 0.813,-4.482 5.154,-11.648 4.625,-17.119 1.834,2.506 2.682,2.224 2.682,2.224 0,0 2.072,-8.013 -0.799,-12.919 1.363,0.529 3.623,0.317 3.623,0.317 0,0 -3.283,-3.918 -4.66,-6.106 -1.375,-2.189 -3.246,-5.965 -5.576,-7.272 -2.331,-1.307 -9.719,0.075 -12.003,3.212 z"
   id="path104" />
		
			<linearGradient
   id="SVGID_00000044870712248518372600000008828802986072068480_"
   gradientUnits="userSpaceOnUse"
   x1="369.34219"
   y1="383.92169"
   x2="383.76181"
   y2="371.81949">
			<stop
   offset="0"
   style="stop-color:#EBBA9B"
   id="stop105" />
			<stop
   offset="1"
   style="stop-color:#FFD2A8"
   id="stop106" />
		</linearGradient>
		<path
   style="fill:url(#SVGID_00000044870712248518372600000008828802986072068480_)"
   d="m 363.847,380.214 c 0,0 1.518,0.761 3.459,0.231 1.941,-0.53 10.025,-2.714 10.025,-2.714 0,0 2.436,0.49 3.74,1.761 0.707,-1.06 0.424,-1.589 0.424,-1.589 0,0 2.578,2.153 3.318,2.577 0.777,-0.671 0.354,-3.459 0.354,-3.459 1.412,0.776 3.494,1.094 3.494,1.094 0,0 0.281,-3.848 -1.377,-6.106 1.658,0.317 3.648,-0.635 3.648,-0.635 0,0 -2.06,-2.931 -6.719,-3.53 -4.66,-0.601 -7.201,1.165 -9.602,2.965 -2.4,1.801 -7.836,7.068 -9.707,6.923 -1.87,-0.146 -1.057,2.482 -1.057,2.482 z"
   id="path106" />
		<path
   style="fill:#6b3022"
   d="m 361.192,375.459 c 0.594,-0.451 2.316,-0.09 3.252,0.333 0.936,0.426 1.094,0.737 1.115,1.315 0.021,0.58 -1.145,3.316 -1.992,3.093 -0.848,-0.224 -3.135,-1.867 -3.021,-2.803 0.111,-0.936 0.646,-1.938 0.646,-1.938 z"
   id="path107" />
		<path
   style="fill:#6b3022"
   d="m 376.38341,367.33511 c 0,0 -0.014,-0.128 -0.02,-0.345 0.01,-0.105 -0.023,-0.233 0.027,-0.384 0.037,-0.152 0.084,-0.331 0.158,-0.525 0.065,-0.215 0.174,-0.366 0.291,-0.563 0.117,-0.19 0.234,-0.406 0.416,-0.565 0.172,-0.167 0.34,-0.366 0.539,-0.524 0.217,-0.14 0.439,-0.28 0.658,-0.422 0.457,-0.254 0.978,-0.389 1.451,-0.487 0.242,-0.026 0.478,-0.026 0.701,-0.029 0.221,0.005 0.428,-0.013 0.615,0.042 0.756,0.177 1.191,0.422 1.191,0.422 l -0.105,0.692 c 0,0 0.21241,9.3002 -0.86769,7.33469 -0.152,0.014 -0.50031,-6.95069 -0.66431,-6.91769 -0.162,0.049 -0.332,0.102 -0.51,0.128 -0.174,0.044 -0.334,0.15 -0.516,0.192 -0.178,0.057 -0.365,0.099 -0.525,0.2 -0.359,0.135 -0.697,0.307 -1.018,0.492 -0.172,0.084 -0.318,0.183 -0.463,0.28 -0.131,0.1 -0.32,0.179 -0.418,0.267 -0.111,0.089 -0.234,0.168 -0.348,0.245 -0.115,0.073 -0.197,0.192 -0.277,0.258 -0.158,0.15 -0.26,0.232 -0.26,0.232 z"
   id="path108-9" /><path
   style="fill:#55ddff;stroke-width:0.0220971"
   d="m 21.09977,43.376341 c -0.032,-0.01739 -0.09434,-0.08607 -0.138515,-0.15263 -0.126668,-0.190834 -0.143666,-0.347582 -0.377603,-3.4821 -0.188281,-2.522775 -0.262198,-3.326622 -0.319837,-3.478223 -0.02117,-0.05569 -0.02123,-0.0557 -0.126993,-0.02249 -0.0582,0.01827 -0.193012,0.05284 -0.299589,0.07682 -0.106576,0.02398 -0.275619,0.0773 -0.37565,0.118474 -0.100031,0.04118 -0.256452,0.09645 -0.347603,0.122832 -0.09115,0.02638 -0.240306,0.0813 -0.331456,0.122047 -0.09115,0.04075 -0.281648,0.125336 -0.423328,0.187979 -0.317914,0.140565 -0.79348,0.39745 -1.101371,0.594926 -0.127611,0.08185 -0.278762,0.177846 -0.335891,0.213331 -0.260612,0.161878 -0.531909,0.370772 -0.765375,0.589325 -0.139564,0.130649 -0.259614,0.237392 -0.266778,0.237206 -0.06041,-0.0016 -0.07375,-0.05257 -0.08449,-0.322897 -0.01054,-0.265499 -0.0068,-0.301412 0.05565,-0.539452 0.0947,-0.360737 0.182022,-0.573634 0.353984,-0.862993 0.254054,-0.427495 0.332326,-0.528582 0.665656,-0.859679 0.28839,-0.286459 0.359999,-0.344146 0.675839,-0.544449 0.540041,-0.34249 0.780093,-0.447051 1.401442,-0.610433 l 0.343944,-0.09044 0.60767,-0.009 c 0.596369,-0.0088 0.611874,-0.0079 0.833724,0.04841 0.404588,0.10276 1.034226,0.333708 1.08868,0.399322 0.01664,0.02005 0.01006,0.113323 -0.02282,0.32347 -0.04372,0.279465 -0.0461,0.377056 -0.04437,1.819998 0.0024,1.969289 -0.03419,3.255927 -0.122112,4.297884 -0.08823,1.045645 -0.220848,1.659241 -0.389238,1.800932 -0.07569,0.06369 -0.07637,0.06379 -0.153575,0.02184 z"
   id="path8"
   transform="translate(360.54189,328.84)" /><path
   style="fill:#6b3022"
   d="m 376.354,367.322 c 0,0 -0.014,-0.128 -0.02,-0.345 0.01,-0.105 -0.023,-0.233 0.027,-0.384 0.037,-0.152 0.084,-0.331 0.158,-0.525 0.065,-0.215 0.174,-0.366 0.291,-0.563 0.117,-0.19 0.234,-0.406 0.416,-0.565 0.172,-0.167 0.34,-0.366 0.539,-0.524 0.217,-0.14 0.439,-0.28 0.658,-0.422 0.457,-0.254 0.978,-0.389 1.451,-0.487 0.242,-0.026 0.478,-0.026 0.701,-0.029 0.221,0.005 0.428,-0.013 0.615,0.042 0.756,0.177 1.191,0.422 1.191,0.422 l -0.105,0.692 c 0,0 -0.465,0.188 -1.063,0.28 -0.152,0.014 -0.305,0.104 -0.469,0.137 -0.162,0.049 -0.332,0.102 -0.51,0.128 -0.174,0.044 -0.334,0.15 -0.516,0.192 -0.178,0.057 -0.365,0.099 -0.525,0.2 -0.359,0.135 -0.697,0.307 -1.018,0.492 -0.172,0.084 -0.318,0.183 -0.463,0.28 -0.131,0.1 -0.32,0.179 -0.418,0.267 -0.111,0.089 -0.234,0.168 -0.348,0.245 -0.115,0.073 -0.197,0.192 -0.277,0.258 -0.158,0.15 -0.26,0.232 -0.26,0.232 z"
   id="path108" />
		
			<linearGradient
   id="SVGID_00000168838290513688258950000014988451678704565129_"
   gradientUnits="userSpaceOnUse"
   x1="409.80371"
   y1="445.88669"
   x2="409.80371"
   y2="445.88669">
			<stop
   offset="0"
   style="stop-color:#FF9D3B"
   id="stop108" />
			<stop
   offset="1"
   style="stop-color:#FF833B"
   id="stop109" />
		</linearGradient>
		<path
   style="fill:url(#SVGID_00000168838290513688258950000014988451678704565129_)"
   d="M 409.804,445.887"
   id="path109" />
		<path
   style="fill:#6b3022"
   d="m 393.261,434.54 -9.736,-4.034 c 0.246,3.613 0.91,11.929 1.172,14.368 0.281,2.637 -0.471,2.732 1.883,3.201 2.352,0.47 4.799,-0.847 4.988,-1.883 0.012,-0.065 0.031,-0.192 0.059,-0.369 0.012,-2.441 1.146,-7.869 1.146,-7.869 0.165,-1.163 0.331,-2.329 0.488,-3.414 z"
   id="path110" />
		
			<linearGradient
   id="SVGID_00000035489662698507771800000000475516489364246438_"
   gradientUnits="userSpaceOnUse"
   x1="404.81119"
   y1="435.85309"
   x2="394.17599"
   y2="442.53519">
			<stop
   offset="0"
   style="stop-color:#EBBA9B"
   id="stop110" />
			<stop
   offset="1"
   style="stop-color:#FFD2A8"
   id="stop111" />
		</linearGradient>
		<path
   style="fill:url(#SVGID_00000035489662698507771800000000475516489364246438_)"
   d="m 399.616,429.016 c -5.049,0.59 -10.025,0.093 -13.838,3.718 -3.813,3.624 -6.299,6.871 -8.115,6.965 0.914,0.612 2.09,0.848 2.09,0.848 0,0 -2.916,4.848 -4.986,5.978 1.6,0.752 3.389,0.8 3.389,0.8 0,0 -3.014,3.999 -6.26,4.611 4,2.637 7.857,3.671 11.246,3.154 -1.129,1.082 -1.092,1.647 -1.092,1.647 0,0 3.916,0.046 7.211,-1.412 3.295,-1.458 5.035,-2.306 5.035,-2.306 0,0 -0.471,1.365 -0.424,2.353 2.166,-0.941 3.861,-1.27 5.744,-1.93 1.881,-0.659 7.012,-2.771 9.223,-5.268 2.211,-2.498 3.859,-6.64 1.646,-11.252 -2.211,-4.612 -6.445,-8.424 -10.869,-7.906 z"
   id="path111" />
		
			<linearGradient
   id="SVGID_00000075131486982132674290000006905096542587613853_"
   gradientUnits="userSpaceOnUse"
   x1="405.99731"
   y1="434.69879"
   x2="419.2695"
   y2="419.0968">
			<stop
   offset="0"
   style="stop-color:#FF9D3B"
   id="stop112" />
			<stop
   offset="1"
   style="stop-color:#FF833B"
   id="stop113" />
		</linearGradient>
		<path
   style="fill:url(#SVGID_00000075131486982132674290000006905096542587613853_)"
   d="m 422.159,418.354 c -0.777,2.683 -2.824,8.118 -8.402,8.401 -5.576,0.282 -18.965,-0.424 -22.824,2.895 1.506,0.423 5.74,1.411 5.74,1.411 l -1.74,3.896 c 0,0 2.941,0.224 4.705,0 -0.916,2.6 -1.41,5.282 -1.41,5.282 0,0 3.035,1.2 5.436,0.494 -1.271,1.765 -1.625,3.883 -1.625,3.883 h 2.824 l -0.354,2.965 2.33,-0.636 -0.918,3.248 c 0,0 6.566,-1.549 8.33,-5.046 -0.07,1.375 0.637,1.798 0.637,1.798 0,0 9.248,-9.813 10.801,-18.425 1.551,-8.612 0,-10.166 0,-10.166 z"
   id="path113" />
	</g>
</svg>
