<?xml version="1.0" encoding="UTF-8" standalone="no"?>
<!-- Generator: Adobe Illustrator 27.5.0, SVG Export Plug-In . SVG Version: 6.00 Build 0)  -->

<svg
   version="1.1"
   x="0px"
   y="0px"
   viewBox="0 0 65.836449 127.89716"
   xml:space="preserve"
   id="svg183"
   sodipodi:docname="animals.svg"
   width="65.836449"
   height="127.89716"
   inkscape:version="1.4.2 (f4327f4, 2025-05-13)"
   xmlns:inkscape="http://www.inkscape.org/namespaces/inkscape"
   xmlns:sodipodi="http://sodipodi.sourceforge.net/DTD/sodipodi-0.dtd"
   xmlns="http://www.w3.org/2000/svg"
   xmlns:svg="http://www.w3.org/2000/svg"><defs
   id="defs183" /><sodipodi:namedview
   id="namedview183"
   pagecolor="#ffffff"
   bordercolor="#000000"
   borderopacity="0.25"
   inkscape:showpageshadow="2"
   inkscape:pageopacity="0.0"
   inkscape:pagecheckerboard="0"
   inkscape:deskcolor="#d1d1d1"
   inkscape:zoom="8"
   inkscape:cx="-19.3125"
   inkscape:cy="-7"
   inkscape:window-width="3840"
   inkscape:window-height="2054"
   inkscape:window-x="-11"
   inkscape:window-y="-11"
   inkscape:window-maximized="1"
   inkscape:current-layer="g113" />

<g
   id="g113"
   inkscape:label="fox"
   transform="translate(-360.54189,-328.84)">
		
			<linearGradient
   id="SVGID_00000022555272061797448230000005631451761428898688_"
   gradientUnits="userSpaceOnUse"
   x1="407.5784"
   y1="436.0437"
   x2="420.85049"
   y2="420.44189">
			<stop
   offset="0"
   style="stop-color:#FF9D3B"
   id="stop95" />
			<stop
   offset="1"
   style="stop-color:#FF833B"
   id="stop96" />
		</linearGradient>
		<path
   style="fill:url(#SVGID_00000022555272061797448230000005631451761428898688_)"
   d="m 418.558,411.86 c 4.096,1.129 6.484,4.01 7.131,6.494 0.647,2.484 -2.117,10.166 -2.117,10.166 l -8.119,-1.482 z"
   id="path96" />
		<g
   id="g99">
			
				<linearGradient
   id="SVGID_00000011730934544922848790000011245087714648257435_"
   gradientUnits="userSpaceOnUse"
   x1="379.76682"
   y1="422.5947"
   x2="380.79361"
   y2="435.23209">
				<stop
   offset="0"
   style="stop-color:#FF833B"
   id="stop97" />
				<stop
   offset="1"
   style="stop-color:#E8592A"
   id="stop98" />
			</linearGradient>
			<path
   style="fill:url(#SVGID_00000011730934544922848790000011245087714648257435_)"
   d="m 373.448,416.166 c 0,0 0.162,3.666 0.338,8.02 1.422,1.962 4.369,5.61 8.264,8.341 1.234,-6.257 3.305,-16.36 3.305,-16.36 h -11.907 z"
   id="path98" />
			<path
   style="fill:#6b3022"
   d="m 373.786,424.185 c 0.236,5.869 0.496,12.993 0.414,14.101 -0.141,1.929 -1.363,4.801 -0.752,5.554 0.611,0.752 3.67,2.022 5.129,0.8 1.461,-1.224 2.307,-5.459 2.59,-7.436 0.076,-0.537 0.422,-2.34 0.883,-4.677 -3.895,-2.731 -6.842,-6.38 -8.264,-8.342 z"
   id="path99" />
		</g>
		
			<linearGradient
   id="SVGID_00000129175240334773183620000015480138072592757424_"
   gradientUnits="userSpaceOnUse"
   x1="376.47971"
   y1="335.33301"
   x2="377.3974"
   y2="346.62799"
   gradientTransform="rotate(35,374.24596,355.05559)">
			<stop
   offset="0"
   style="stop-color:#FF833B"
   id="stop99" />
			<stop
   offset="1"
   style="stop-color:#E8592A"
   id="stop100" />
		</linearGradient>
		<path
   style="fill:url(#SVGID_00000129175240334773183620000015480138072592757424_)"
   d="m 394.00668,336.88888 c -3.59074,0.33014 -17.86478,9.63946 -22.77061,16.8898 l 12.70014,4.75552 c 3.99096,-4.09921 9.40402,-13.92547 10.07047,-21.64532 z"
   id="path100" />
		
			<linearGradient
   id="SVGID_00000145056482220758278180000000307421030348560523_"
   gradientUnits="userSpaceOnUse"
   x1="393.7923"
   y1="393.18381"
   x2="407.70541"
   y2="437.82181">
			<stop
   offset="0"
   style="stop-color:#FF833B"
   id="stop101" />
			<stop
   offset="1"
   style="stop-color:#E8592A"
   id="stop102" />
		</linearGradient>
		<path
   style="fill:url(#SVGID_00000145056482220758278180000000307421030348560523_)"
   d="m 415.005,399.317 c -4.52,-4.612 -16.756,-10.919 -19.861,-23.155 1.506,0.941 2.354,0.941 2.354,0.941 0,0 -1.318,-6.307 -1.648,-7.295 2.119,1.129 1.932,0.423 1.932,0.423 l -1.742,-10.683 c 0,0 2.541,-4.659 4.283,-9.931 2.377,-7.193 1.869,-6.896 2.541,-15.437 0,0 -9.035,5.177 -16.273,14.361 -1.234,-0.315 -4.031,-0.939 -6.6,-0.431 -4.754,0.941 -8.705,5.459 -10.775,8 -2.072,2.542 -2.355,4.943 -2.449,6.167 -0.094,1.223 0.094,3.952 -0.895,5.553 -0.988,1.601 -4.846,6.964 -4.846,8.142 0,1.177 2.352,4.002 4.094,3.906 1.742,-0.095 12.707,-3.436 12.707,-3.436 0,0 5.459,50.265 5.646,53.276 0.188,3.011 0.941,12.518 1.225,15.153 0.281,2.637 -0.471,2.732 1.883,3.201 2.352,0.47 4.799,-0.847 4.988,-1.883 0.012,-0.065 0.031,-0.192 0.059,-0.369 0.35,0.161 0.766,0.233 1.258,0.181 2.637,-0.282 16.473,-11.766 21.555,-16.283 5.084,-4.519 6.402,-7.624 6.402,-13.461 -0.002,-5.833 -1.321,-12.328 -5.838,-16.94 z m -22.233,38.637 c 0.619,-4.317 1.242,-8.705 1.242,-8.705 0,0 1.506,3.012 2.07,3.482 0.333,0.278 -1.583,2.868 -3.312,5.223 z"
   id="path102" />
		
			<linearGradient
   id="SVGID_00000015339709686849948160000010607432352679410054_"
   gradientUnits="userSpaceOnUse"
   x1="380.3168"
   y1="378.39569"
   x2="379.18729"
   y2="392.51489">
			<stop
   offset="0"
   style="stop-color:#EBBA9B"
   id="stop103" />
			<stop
   offset="1"
   style="stop-color:#FFD2A8"
   id="stop104" />
		</linearGradient>
		<path
   style="fill:url(#SVGID_00000015339709686849948160000010607432352679410054_)"
   d="m 372.317,377.975 -0.811,2.436 c -3.283,1.094 -6.107,5.329 -6.107,5.329 1.094,0.459 3.637,0 3.637,0 0,0 -3.389,3.883 -4.836,9.849 -1.447,5.965 0,11.472 0,11.472 0,0 1.728,-1.307 2.117,-2.189 -0.07,4.307 2.225,13.66 6,16.66 0.637,-2.576 0.637,-2.576 0.637,-2.576 0,0 3.809,8.895 10.553,11.295 -0.105,-4.482 0.107,-10.131 0.918,-14.613 0.813,-4.482 5.154,-11.648 4.625,-17.119 1.834,2.506 2.682,2.224 2.682,2.224 0,0 2.072,-8.013 -0.799,-12.919 1.363,0.529 3.623,0.317 3.623,0.317 0,0 -3.283,-3.918 -4.66,-6.106 -1.375,-2.189 -3.246,-5.965 -5.576,-7.272 -2.331,-1.307 -9.719,0.075 -12.003,3.212 z"
   id="path104" />
		
			<linearGradient
   id="SVGID_00000044870712248518372600000008828802986072068480_"
   gradientUnits="userSpaceOnUse"
   x1="369.34219"
   y1="383.92169"
   x2="383.76181"
   y2="371.81949">
			<stop
   offset="0"
   style="stop-color:#EBBA9B"
   id="stop105" />
			<stop
   offset="1"
   style="stop-color:#FFD2A8"
   id="stop106" />
		</linearGradient>
		<path
   style="fill:url(#SVGID_00000044870712248518372600000008828802986072068480_)"
   d="m 363.847,380.214 c 0,0 1.518,0.761 3.459,0.231 1.941,-0.53 10.025,-2.714 10.025,-2.714 0,0 2.436,0.49 3.74,1.761 0.707,-1.06 0.424,-1.589 0.424,-1.589 0,0 2.578,2.153 3.318,2.577 0.777,-0.671 0.354,-3.459 0.354,-3.459 1.412,0.776 3.494,1.094 3.494,1.094 0,0 0.281,-3.848 -1.377,-6.106 1.658,0.317 3.648,-0.635 3.648,-0.635 0,0 -2.06,-2.931 -6.719,-3.53 -4.66,-0.601 -7.201,1.165 -9.602,2.965 -2.4,1.801 -7.836,7.068 -9.707,6.923 -1.87,-0.146 -1.057,2.482 -1.057,2.482 z"
   id="path106"
   sodipodi:nodetypes="cscccccccccccc" />
		<path
   style="fill:#6b3022"
   d="m 361.192,375.459 c 0.594,-0.451 2.316,-0.09 3.252,0.333 0.936,0.426 1.094,0.737 1.115,1.315 0.021,0.58 -1.145,3.316 -1.992,3.093 -0.848,-0.224 -3.135,-1.867 -3.021,-2.803 0.111,-0.936 0.646,-1.938 0.646,-1.938 z"
   id="path107" />
		<path
   style="fill:#6b3022"
   d="m 376.354,367.322 c 0,0 -0.014,-0.128 -0.02,-0.345 0.01,-0.105 -0.023,-0.233 0.027,-0.384 0.037,-0.152 0.084,-0.331 0.158,-0.525 0.065,-0.215 0.174,-0.366 0.291,-0.563 0.117,-0.19 0.234,-0.406 0.416,-0.565 0.172,-0.167 0.34,-0.366 0.539,-0.524 0.217,-0.14 0.439,-0.28 0.658,-0.422 0.457,-0.254 0.978,-0.389 1.451,-0.487 0.242,-0.026 0.478,-0.026 0.701,-0.029 0.221,0.005 0.428,-0.013 0.615,0.042 0.756,0.177 1.191,0.422 1.191,0.422 l -0.105,0.692 c 0,0 -0.465,0.188 -1.063,0.28 -0.152,0.014 -0.305,0.104 -0.469,0.137 -0.162,0.049 -0.332,0.102 -0.51,0.128 -0.174,0.044 -0.334,0.15 -0.516,0.192 -0.178,0.057 -0.365,0.099 -0.525,0.2 -0.359,0.135 -0.697,0.307 -1.018,0.492 -0.172,0.084 -0.318,0.183 -0.463,0.28 -0.131,0.1 -0.32,0.179 -0.418,0.267 -0.111,0.089 -0.234,0.168 -0.348,0.245 -0.115,0.073 -0.197,0.192 -0.277,0.258 -0.158,0.15 -0.26,0.232 -0.26,0.232 z"
   id="path108" />
		
			<linearGradient
   id="SVGID_00000168838290513688258950000014988451678704565129_"
   gradientUnits="userSpaceOnUse"
   x1="409.80371"
   y1="445.88669"
   x2="409.80371"
   y2="445.88669">
			<stop
   offset="0"
   style="stop-color:#FF9D3B"
   id="stop108" />
			<stop
   offset="1"
   style="stop-color:#FF833B"
   id="stop109" />
		</linearGradient>
		<path
   style="fill:url(#SVGID_00000168838290513688258950000014988451678704565129_)"
   d="M 409.804,445.887"
   id="path109" />
		<path
   style="fill:#6b3022"
   d="m 393.261,434.54 -9.736,-4.034 c 0.246,3.613 0.91,11.929 1.172,14.368 0.281,2.637 -0.471,2.732 1.883,3.201 2.352,0.47 4.799,-0.847 4.988,-1.883 0.012,-0.065 0.031,-0.192 0.059,-0.369 0.012,-2.441 1.146,-7.869 1.146,-7.869 0.165,-1.163 0.331,-2.329 0.488,-3.414 z"
   id="path110" />
		
			<linearGradient
   id="SVGID_00000035489662698507771800000000475516489364246438_"
   gradientUnits="userSpaceOnUse"
   x1="404.81119"
   y1="435.85309"
   x2="394.17599"
   y2="442.53519">
			<stop
   offset="0"
   style="stop-color:#EBBA9B"
   id="stop110" />
			<stop
   offset="1"
   style="stop-color:#FFD2A8"
   id="stop111" />
		</linearGradient>
		<path
   style="fill:url(#SVGID_00000035489662698507771800000000475516489364246438_)"
   d="m 399.616,429.016 c -5.049,0.59 -10.025,0.093 -13.838,3.718 -3.813,3.624 -6.299,6.871 -8.115,6.965 0.914,0.612 2.09,0.848 2.09,0.848 0,0 -2.916,4.848 -4.986,5.978 1.6,0.752 3.389,0.8 3.389,0.8 0,0 -3.014,3.999 -6.26,4.611 4,2.637 7.857,3.671 11.246,3.154 -1.129,1.082 -1.092,1.647 -1.092,1.647 0,0 3.916,0.046 7.211,-1.412 3.295,-1.458 5.035,-2.306 5.035,-2.306 0,0 -0.471,1.365 -0.424,2.353 2.166,-0.941 3.861,-1.27 5.744,-1.93 1.881,-0.659 7.012,-2.771 9.223,-5.268 2.211,-2.498 3.859,-6.64 1.646,-11.252 -2.211,-4.612 -6.445,-8.424 -10.869,-7.906 z"
   id="path111" />
		
			<linearGradient
   id="SVGID_00000075131486982132674290000006905096542587613853_"
   gradientUnits="userSpaceOnUse"
   x1="405.99731"
   y1="434.69879"
   x2="419.2695"
   y2="419.0968">
			<stop
   offset="0"
   style="stop-color:#FF9D3B"
   id="stop112" />
			<stop
   offset="1"
   style="stop-color:#FF833B"
   id="stop113" />
		</linearGradient>
		<path
   style="fill:url(#SVGID_00000075131486982132674290000006905096542587613853_)"
   d="m 422.159,418.354 c -0.777,2.683 -2.824,8.118 -8.402,8.401 -5.576,0.282 -18.965,-0.424 -22.824,2.895 1.506,0.423 5.74,1.411 5.74,1.411 l -1.74,3.896 c 0,0 2.941,0.224 4.705,0 -0.916,2.6 -1.41,5.282 -1.41,5.282 0,0 3.035,1.2 5.436,0.494 -1.271,1.765 -1.625,3.883 -1.625,3.883 h 2.824 l -0.354,2.965 2.33,-0.636 -0.918,3.248 c 0,0 6.566,-1.549 8.33,-5.046 -0.07,1.375 0.637,1.798 0.637,1.798 0,0 9.248,-9.813 10.801,-18.425 1.551,-8.612 0,-10.166 0,-10.166 z"
   id="path113" />
	<g
   id="g24"
   transform="matrix(0.1,0,0,0.1,62.061156,190.42124)">
	<path
   style="fill:#8563a7"
   d="m 2162.113,1180.805 c -3.355,-264.464 -229.49,-469.659 -336.331,-534.19 -39.285,-23.729 -244.804,-148.285 -454.919,-121.042 -244.289,31.674 -592.799,157.32 -786.716,259.443 0.231,-0.273 0.46,-0.545 0.69,-0.818 3.578,-4.234 2.482,-12.249 -1.229,-16.041 -4.463,-4.558 -10.102,-5.052 -15.857,-2.912 -3.404,1.265 -6.809,2.531 -10.213,3.796 -0.852,0.317 -1.702,0.632 -2.554,0.949 l -0.7,0.284 -0.102,0.028 c 2.05,-3.217 3.874,-6.523 4.751,-10.11 0.458,-0.759 0.89,-1.538 1.333,-2.304 0.951,-1.643 1.902,-3.285 2.852,-4.928 2.253,-3.893 2.373,-8.434 -0.227,-12.209 -2.323,-3.372 -7.198,-5.856 -11.368,-4.545 -2.812,0.884 -5.699,1.903 -8.6,2.68 -4.789,-0.165 -9.714,1.63 -14.336,3.603 2.276,-4.063 4.736,-8.222 5.549,-12.731 0.663,-1.167 1.319,-2.338 1.99,-3.501 6.074,-10.538 -4.421,-21.946 -15.458,-17.148 -1.39,0.604 -2.773,1.224 -4.158,1.838 -3.989,0.396 -8.054,1.867 -11.994,3.801 0.31,-1.085 0.834,-2.121 0.993,-3.244 0.977,-2.303 1.956,-4.604 2.934,-6.908 3.671,-8.648 -7.628,-17.883 -15.505,-13.13 -1.995,1.204 -3.991,2.408 -5.986,3.612 -5.524,1.533 -10.265,5.329 -15.127,8.467 -1.149,0.742 -2.358,1.474 -3.559,2.208 0.834,-3.333 1.795,-6.624 2.606,-9.972 1.892,-7.812 -0.922,-15.656 -8.43,-19.223 -7.301,-3.469 -15.581,-1.005 -20.243,5.566 -3.781,5.331 -7.579,10.63 -11.306,15.978 0.254,-2.092 0.811,-4.136 0.915,-6.215 0.363,-7.247 -1.799,-12.4 -6.043,-18.318 -3.096,-4.319 -9.889,-5.867 -14.799,-4.74 -12.9,2.959 -19.698,14.846 -24.436,26.261 -0.275,0.663 -0.481,1.354 -0.751,2.018 -1.157,-3.798 -2.345,-7.588 -3.435,-11.407 -1.217,-4.261 -2.162,-8.752 -4.337,-12.632 -1.313,-2.342 -3.29,-4.836 -4.989,-7.042 -0.713,-0.989 -0.824,-1.123 -0.427,-0.534 -0.182,-0.266 -0.365,-0.531 -0.546,-0.797 -3.641,-5.331 -8.305,-8.84 -15.162,-8.226 -6.219,0.558 -11.33,4.682 -13.409,10.595 -0.849,2.41 -1.758,4.814 -2.6,7.233 l -0.1,-0.191 c -3.263,-5.273 -6.683,-10.455 -10.022,-15.681 -3.745,-5.862 -10.087,-9.055 -16.954,-6.565 -2.714,0.983 -5.397,2.771 -6.908,5.326 -2.018,3.413 -2.304,6.66 -1.923,10.569 0.387,3.952 0.772,7.906 1.157,11.859 -1.662,-3.373 -3.307,-6.753 -4.884,-10.167 -6.06,-13.108 -26.023,-7.777 -26.699,5.891 -0.12,2.407 -0.169,4.817 -0.251,7.225 -1.672,-0.122 -3.424,-0.008 -5.281,0.406 -6.017,1.342 -12.81,6.456 -14.086,12.864 -0.645,3.235 -1.576,6.478 -1.477,9.786 0.055,1.818 0.294,3.647 0.43,5.461 0.437,5.895 0.933,11.602 2.298,17.356 1.202,5.065 2.239,10.169 3.327,15.26 l -0.022,-0.025 c -0.495,-0.453 -0.85,-0.772 -1.172,-1.059 l -0.666,-0.753 c -1.255,-1.558 -2.518,-3.114 -3.785,-4.663 -2.684,-3.281 -5.396,-6.538 -8.13,-9.776 -9.614,-11.394 -29.796,-1.203 -25.943,13.354 1.258,4.752 2.479,9.513 3.652,14.285 0.132,0.534 0.261,1.069 0.391,1.603 -2.116,-0.993 -4.218,-2.029 -6.343,-2.964 -3.618,-1.591 -8.393,-0.91 -11.909,0.365 -3.639,1.319 -7.238,3.715 -9.263,7.143 -4.009,6.781 -4.259,16.65 1.726,22.533 4.592,4.514 8.797,9.448 12.808,14.53 -3.264,-1.147 -6.618,-2.073 -9.962,-3.039 -6.931,-2.003 -14.223,-0.007 -18.943,5.491 -4.706,5.483 -5.65,13.23 -2.44,19.758 2.808,5.716 5.314,11.318 9.252,16.347 -0.6,-0.055 -1.172,-0.223 -1.777,-0.26 -6.219,-0.381 -12.426,-0.257 -18.654,-0.221 -6.554,0.037 -13.473,3.994 -15.292,10.688 -1.835,6.762 0.514,13.489 6.235,17.585 5.056,3.62 10.048,7.303 15.336,10.579 6.56,4.063 13.627,6.698 20.816,9.403 1.551,0.583 3.103,1.167 4.655,1.75 -1.885,0.117 -3.819,0.115 -5.675,0.282 -13.941,1.249 -27.465,7.997 -39.236,15.345 -5.296,3.306 -9.244,9.479 -7.495,15.989 1.678,6.243 6.909,10.971 13.516,11.303 5.706,0.286 11.429,0.888 17.132,1.63 -2.411,1.083 -4.702,2.334 -6.537,4.11 -0.576,0.324 -1.153,0.649 -1.73,0.973 -4.683,2.638 -7.48,7.477 -6.995,12.894 0.482,5.383 3.997,9.506 9.01,11.403 0.574,0.217 1.147,0.435 1.721,0.652 5.755,4.057 14.041,4.418 20.864,5.424 3.338,0.492 6.734,0.528 10.126,0.526 -1.796,1.076 -3.62,2.122 -5.391,3.215 -5.971,3.688 -11.867,7.49 -17.406,11.809 -3.754,2.927 -8.048,6.301 -10.94,10.319 -2.868,2.222 -5.737,4.443 -8.605,6.666 -4.21,3.261 -5.377,10.535 -2.774,15.102 2.76,4.843 8.299,7.802 13.903,6.517 3.258,-0.747 6.514,-1.494 9.773,-2.242 5.431,0.326 11.375,-1.112 16.218,-2.222 3.996,-0.916 7.839,-2.234 11.705,-3.52 -0.448,0.94 -0.894,1.883 -1.341,2.823 -0.722,1.995 -0.905,4.012 -0.546,6.053 0.286,3.197 1.442,6.573 3.752,8.932 4.712,4.815 12.346,6.773 18.5,3.398 4.66,-2.555 9.415,-4.926 14.27,-7.089 4.763,-2.122 9.846,-3.701 14.491,-6.047 l 0.993,1.184 c -1.492,1.079 -3.015,2.127 -4.425,3.284 -4.665,3.832 -9.022,8.133 -13.507,12.176 l -6.304,5.681 c -1.197,1.079 -2.446,2.122 -3.602,3.247 -1.39,1.351 -2.439,2.687 -3.343,4.121 -1.561,1.696 -3.121,3.391 -4.683,5.086 -3.688,4.008 -5.698,9.974 -2.773,15.102 2.539,4.455 8.572,8.4 13.902,6.517 1.451,-0.512 2.902,-1.025 4.353,-1.538 0.709,-0.25 1.499,-0.442 2.176,-0.768 1.389,-0.344 1.456,-0.48 0.201,-0.408 -1.561,-0.01 -1.185,-0.077 1.128,-0.204 3.401,-0.305 6.637,-1.783 9.798,-3.298 -1.562,1.589 -2.867,3.392 -3.613,5.721 -1.152,3.596 -0.93,8.401 0.974,11.741 1.972,3.46 5.03,6.539 8.99,7.615 4.18,1.135 7.723,0.565 11.742,-0.973 7.162,-2.743 14.285,-5.586 21.361,-8.544 6.84,-2.859 13.967,-5.535 20.529,-8.994 3.214,-1.693 6.31,-3.666 9.427,-5.53 1.442,-0.863 2.92,-1.745 4.389,-2.621 -0.912,1.536 -1.829,3.074 -2.726,4.601 -1.158,1.974 -2.318,3.949 -3.476,5.925 -0.578,0.985 -1.188,1.959 -1.738,2.961 -1.611,2.499 -2.467,5.239 -2.894,8.117 -0.418,1.373 -0.835,2.746 -1.254,4.121 -1.982,6.517 0.057,13.53 5.202,17.945 4.739,4.068 13.075,5.957 18.719,2.314 1.627,-1.051 3.252,-2.101 4.879,-3.152 1.231,-0.562 2.369,-1.262 3.459,-2.04 -0.594,4.698 0.06,5.912 -0.105,10.236 -0.364,9.53 10.799,14.056 17.814,8.386 1.313,-1.063 2.628,-2.124 3.942,-3.186 11.625,-6.866 17.968,-21.169 24.679,-32.425 2.209,-3.704 4.25,-7.484 6.329,-11.245 -0.518,3.311 -0.958,6.626 -1.036,10.025 -0.055,2.405 -0.077,4.811 -0.064,7.217 0.006,1.113 -0.01,2.234 0.04,3.347 0.121,2.702 0.868,4.885 1.965,6.955 0.226,1.164 0.449,2.329 0.688,3.49 1.656,8.017 13.33,10.43 17.662,3.215 0.532,-0.887 1.079,-1.764 1.621,-2.645 1.544,-1.246 2.884,-2.688 3.822,-4.66 0.665,-1.401 1.292,-2.814 1.927,-4.228 l 0.236,-0.514 c 1.815,3.906 5.302,6.922 9.767,7.718 7.041,1.255 12.436,-2.818 15.203,-9.062 2.282,-5.151 4.565,-10.304 6.847,-15.456 2.368,-5.345 3.856,-10.96 5.536,-16.554 0.509,-1.692 0.841,-3.329 1.214,-4.979 0.895,3.959 1.697,8.007 3.479,11.678 1.165,2.401 2.528,4.771 3.849,7.092 2.662,4.681 6.101,8.792 11.538,10.32 4.311,1.212 8.149,1.416 12.321,-0.337 6.879,-2.891 10.314,-8.207 12.25,-15.093 0.628,-2.235 1.257,-4.468 1.769,-6.727 2.232,2.424 4.649,4.695 7.05,6.98 2.885,2.749 5.874,4.602 9.866,5.314 3.602,0.642 7.625,0.367 10.899,-1.5 6.684,-3.811 10.688,-11.396 8.96,-19.116 -1.337,-5.972 -2.074,-12.162 -4.566,-17.793 -1.777,-4.017 -3.676,-7.977 -5.44,-12.002 h 10e-4 c 4.013,0.715 7.989,1.365 12.065,1.55 4.579,0.205 9.977,0.354 14.267,-1.005 4.426,-1.404 8.821,-3.026 13.014,-5.034 7.044,-3.376 11.001,-11.503 10.326,-19.035 -0.64,-7.147 -5.827,-15.129 -13.299,-16.833 -2.085,-0.475 -4.14,-1.033 -6.169,-1.714 -3.779,-1.268 -7.531,-1.945 -11.493,-2.612 l 6.115,1.089 c -4.424,-0.815 -8.729,-2.08 -12.918,-3.709 0.759,-1.322 1.617,-2.564 2.346,-3.908 2.234,0.561 4.467,1.134 6.716,1.634 4.791,1.065 9.945,2.655 14.817,2.463 8.252,-0.325 15.697,-1.833 23.561,-4.073 6.287,-1.793 10.98,-6.281 12.154,-12.87 1.109,-6.219 -1.522,-12.639 -6.866,-16.186 -2.511,-1.667 -4.967,-3.394 -7.451,-5.077 20.284,1.43 41.551,2.415 63.22,3.028 7.83,0.221 15.708,0.395 23.608,0.527 7.898,0.132 15.817,0.221 23.726,0.273 3.954,0.025 7.906,0.041 11.852,0.048 15.783,0.028 31.466,-0.086 46.815,-0.306 11.511,-0.166 22.833,-0.391 33.866,-0.661 7.355,-0.18 14.582,-0.38 21.65,-0.595 7.069,-0.214 13.978,-0.445 20.701,-0.686 23.529,-0.843 44.756,-1.818 62.412,-2.728 22.12,-1.141 38.577,-2.178 46.98,-2.734 0.167,1.04 0.499,2.059 1.162,2.969 0.34,0.466 0.8,0.766 1.223,1.121 -3.808,4.577 -10.091,12.526 -17.496,23.481 -12.159,17.988 -27.248,43.952 -38.975,75.861 -16.491,44.872 -18.926,177.66 -18.918,252.547 0,4.993 0.012,9.728 0.031,14.164 0.018,4.435 0.045,8.568 0.075,12.358 0.02,2.528 0.042,4.901 0.065,7.11 0.023,2.209 0.046,4.252 0.069,6.116 0.023,1.865 0.046,3.551 0.068,5.046 0.008,0.558 0.015,1.063 0.023,1.567 -0.201,2.205 -0.18,4.392 0.112,6.557 9.952,73.722 305.528,94.674 660.188,46.798 354.654,-47.875 634.095,-146.45 624.143,-220.172 z"
   id="path1" />
	<path
   style="fill:#58417f"
   d="m 2162.113,1180.805 c -20.037,-22.561 -54.489,-37.686 -98.579,-47.258 -139.385,-30.26 -375.402,-4.841 -559.388,18.075 1.913,0.078 3.821,0.17 5.735,0.242 -17.991,1.633 -35.288,3.464 -51.651,5.54 -201.939,25.602 -369.762,71.385 -467.928,116.903 -3.838,1.779 -7.523,3.564 -11.133,5.35 -74.904,37.049 -101.391,74.524 -101.391,74.524 9.952,73.722 305.528,94.674 660.187,46.798 354.659,-47.877 634.1,-146.452 624.148,-220.174 z"
   id="path2" />
	<path
   style="fill:#ddf1fd"
   d="m 601.515,912.002 c 3.823,0.632 -1.134,-0.249 -1.839,-0.411 -1.497,-0.343 -2.985,-0.727 -4.461,-1.15 -2.467,-0.707 -4.882,-1.551 -7.335,-2.281 2.222,-0.437 4.436,-0.885 6.686,-1.551 4.689,-1.391 9.644,-2.599 13.388,-5.96 0.363,-0.327 2.727,-2.82 3.546,-4.514 l 0.501,-0.335 c 2.788,-1.865 4.789,-4.188 4.935,-7.727 0.122,-2.959 -1.39,-6.54 -4.118,-8 -0.594,-0.317 -1.187,-0.635 -1.779,-0.957 l -0.327,-0.171 -0.253,-0.387 c -3.098,-4.5 -7.568,-6.345 -12.439,-7.919 2.313,-1.591 4.624,-3.182 6.884,-4.849 3.997,-2.947 4.882,-9.286 3.323,-13.591 -1.557,-4.294 -6.259,-8.68 -11.206,-8.318 -4.512,0.329 -9.029,0.475 -13.554,0.488 l -0.778,-0.171 0.552,-0.3 c 1.829,-0.979 3.695,-1.898 5.508,-2.905 2.654,-1.474 4.757,-3.362 6.513,-5.556 1.721,-1.368 3.432,-2.806 4.876,-4.452 2.747,-1.48 5.494,-2.959 8.266,-4.393 2.721,-1.408 4.252,-4.652 3.584,-7.646 -0.719,-3.224 -3.397,-4.913 -6.464,-5.407 -2.792,-0.449 -5.592,-0.848 -8.391,-1.258 -2.191,-1.257 -4.7,-2.047 -7.125,-2.729 -3.002,-1.562 -6.315,-2.433 -10.018,-2.68 -2.49,-0.165 -4.982,-0.313 -7.475,-0.442 -1.993,-0.103 -3.949,0.067 -5.917,0.146 1.537,-1.833 3.109,-3.625 4.542,-5.577 4.068,-5.543 8.556,-10.731 12.997,-15.974 0.003,-0.003 0.006,-0.006 0.009,-0.01 0.231,-0.273 0.46,-0.545 0.69,-0.818 3.578,-4.234 2.482,-12.249 -1.229,-16.041 -4.463,-4.558 -10.102,-5.052 -15.857,-2.912 -3.404,1.265 -6.809,2.531 -10.213,3.796 -0.852,0.317 -1.702,0.632 -2.554,0.949 l -0.7,0.284 -0.102,0.028 c 2.05,-3.217 3.874,-6.523 4.751,-10.11 0.458,-0.759 0.89,-1.538 1.333,-2.304 0.951,-1.643 1.902,-3.285 2.852,-4.928 2.253,-3.893 2.373,-8.434 -0.227,-12.209 -2.323,-3.372 -7.198,-5.856 -11.368,-4.545 -2.812,0.884 -5.699,1.903 -8.6,2.68 -4.789,-0.165 -9.714,1.63 -14.336,3.603 2.276,-4.063 4.736,-8.222 5.549,-12.731 0.663,-1.167 1.319,-2.338 1.99,-3.501 6.074,-10.538 -4.421,-21.946 -15.458,-17.148 -1.39,0.604 -2.773,1.224 -4.158,1.838 -3.989,0.396 -8.054,1.867 -11.994,3.801 0.31,-1.085 0.834,-2.121 0.993,-3.244 0.977,-2.303 1.956,-4.604 2.933,-6.908 3.671,-8.648 -7.628,-17.883 -15.504,-13.13 -1.995,1.204 -3.991,2.408 -5.986,3.612 -5.524,1.533 -10.265,5.329 -15.127,8.467 -1.149,0.742 -2.358,1.474 -3.559,2.208 0.834,-3.333 1.795,-6.624 2.606,-9.972 1.892,-7.812 -0.922,-15.656 -8.43,-19.223 -7.301,-3.469 -15.581,-1.005 -20.243,5.566 -3.781,5.331 -7.579,10.63 -11.306,15.978 0.254,-2.092 0.811,-4.136 0.915,-6.215 0.363,-7.247 -1.799,-12.4 -6.043,-18.318 -3.096,-4.319 -9.889,-5.867 -14.799,-4.74 -12.9,2.959 -19.698,14.846 -24.436,26.261 -0.275,0.663 -0.481,1.354 -0.751,2.018 -1.157,-3.798 -2.346,-7.588 -3.435,-11.407 -1.217,-4.261 -2.162,-8.752 -4.337,-12.632 -1.313,-2.342 -3.29,-4.836 -4.989,-7.042 -0.713,-0.989 -0.824,-1.123 -0.427,-0.534 -0.182,-0.266 -0.365,-0.531 -0.546,-0.797 -3.641,-5.331 -8.305,-8.84 -15.162,-8.226 -6.219,0.558 -11.33,4.682 -13.409,10.595 -0.849,2.41 -1.758,4.814 -2.6,7.233 l -0.1,-0.191 c -3.263,-5.273 -6.683,-10.455 -10.022,-15.681 -3.745,-5.862 -10.087,-9.055 -16.954,-6.565 -2.714,0.983 -5.397,2.771 -6.908,5.326 -2.018,3.413 -2.304,6.66 -1.923,10.569 0.387,3.952 0.772,7.906 1.157,11.859 -1.662,-3.373 -3.307,-6.753 -4.884,-10.167 -6.06,-13.108 -26.024,-7.777 -26.699,5.891 -0.12,2.407 -0.169,4.817 -0.251,7.225 -1.672,-0.122 -3.424,-0.008 -5.281,0.406 -6.017,1.342 -12.81,6.456 -14.087,12.864 -0.645,3.235 -1.575,6.478 -1.477,9.786 0.055,1.818 0.294,3.647 0.43,5.461 0.437,5.895 0.933,11.602 2.298,17.356 1.202,5.065 2.239,10.169 3.327,15.26 l -0.022,-0.025 c -0.495,-0.453 -0.85,-0.772 -1.172,-1.059 l -0.666,-0.753 c -1.255,-1.558 -2.518,-3.114 -3.785,-4.663 -2.684,-3.281 -5.396,-6.538 -8.13,-9.776 -9.614,-11.394 -29.796,-1.203 -25.943,13.354 1.258,4.752 2.48,9.513 3.653,14.285 0.132,0.534 0.261,1.069 0.391,1.603 -2.116,-0.993 -4.218,-2.029 -6.343,-2.964 -3.618,-1.591 -8.393,-0.91 -11.909,0.365 -3.639,1.319 -7.238,3.715 -9.263,7.143 -4.009,6.781 -4.259,16.65 1.726,22.533 4.592,4.514 8.797,9.448 12.808,14.53 -3.264,-1.147 -6.618,-2.073 -9.962,-3.039 -6.931,-2.003 -14.223,-0.007 -18.943,5.491 -4.706,5.483 -5.65,13.23 -2.44,19.758 2.808,5.716 5.314,11.318 9.252,16.347 -0.6,-0.055 -1.172,-0.223 -1.777,-0.26 -6.219,-0.381 -12.426,-0.257 -18.654,-0.221 -6.554,0.037 -13.473,3.994 -15.292,10.688 -1.835,6.762 0.514,13.489 6.235,17.585 5.056,3.62 10.048,7.303 15.336,10.579 6.559,4.063 13.627,6.698 20.816,9.403 1.551,0.583 3.103,1.167 4.654,1.75 -1.885,0.117 -3.819,0.115 -5.674,0.282 -13.941,1.249 -27.465,7.997 -39.236,15.345 -5.296,3.306 -9.244,9.479 -7.495,15.989 1.678,6.243 6.909,10.971 13.516,11.303 5.706,0.286 11.429,0.888 17.132,1.63 -2.411,1.083 -4.702,2.334 -6.537,4.11 -0.576,0.324 -1.153,0.649 -1.73,0.973 -4.683,2.638 -7.48,7.477 -6.995,12.894 0.482,5.383 3.997,9.506 9.01,11.403 0.574,0.217 1.147,0.435 1.721,0.652 5.755,4.057 14.041,4.418 20.864,5.424 3.338,0.492 6.734,0.528 10.126,0.526 -1.796,1.076 -3.62,2.122 -5.391,3.215 -5.971,3.688 -11.867,7.49 -17.406,11.809 -3.754,2.927 -8.048,6.301 -10.94,10.319 -2.868,2.222 -5.737,4.443 -8.605,6.666 -4.21,3.261 -5.377,10.535 -2.774,15.102 2.76,4.843 8.299,7.802 13.903,6.517 3.258,-0.747 6.514,-1.494 9.773,-2.242 5.431,0.326 11.375,-1.112 16.218,-2.222 3.996,-0.916 7.839,-2.234 11.705,-3.52 -0.448,0.94 -0.894,1.883 -1.341,2.823 -0.722,1.995 -0.905,4.012 -0.546,6.053 0.286,3.197 1.442,6.573 3.752,8.932 4.712,4.815 12.346,6.773 18.5,3.398 4.66,-2.555 9.415,-4.926 14.27,-7.089 4.763,-2.122 9.846,-3.701 14.491,-6.047 l 0.993,1.184 c -1.492,1.079 -3.015,2.127 -4.425,3.284 -4.665,3.832 -9.022,8.133 -13.507,12.176 l -6.304,5.681 c -1.197,1.079 -2.446,2.122 -3.602,3.247 -1.39,1.351 -2.439,2.687 -3.343,4.121 -1.561,1.696 -3.121,3.391 -4.683,5.086 -3.688,4.008 -5.698,9.974 -2.773,15.102 2.539,4.455 8.572,8.4 13.902,6.517 1.451,-0.512 2.902,-1.025 4.353,-1.538 0.709,-0.25 1.499,-0.442 2.176,-0.768 1.389,-0.344 1.456,-0.48 0.201,-0.408 -1.561,-0.01 -1.185,-0.077 1.128,-0.204 3.401,-0.305 6.637,-1.783 9.798,-3.298 -1.562,1.589 -2.867,3.392 -3.613,5.721 -1.152,3.596 -0.93,8.401 0.974,11.741 1.972,3.46 5.03,6.539 8.99,7.615 4.18,1.135 7.723,0.565 11.742,-0.973 7.162,-2.743 14.285,-5.586 21.361,-8.544 6.84,-2.859 13.967,-5.535 20.529,-8.994 3.214,-1.693 6.31,-3.666 9.427,-5.53 1.442,-0.863 2.92,-1.745 4.389,-2.621 -0.912,1.536 -1.83,3.074 -2.726,4.601 -1.158,1.974 -2.318,3.949 -3.476,5.925 -0.578,0.985 -1.188,1.959 -1.738,2.961 -1.611,2.499 -2.467,5.239 -2.894,8.117 -0.418,1.373 -0.835,2.746 -1.254,4.121 -1.982,6.517 0.057,13.53 5.202,17.945 4.739,4.068 13.075,5.957 18.719,2.314 1.627,-1.051 3.252,-2.101 4.879,-3.152 1.231,-0.562 2.369,-1.262 3.459,-2.04 -0.594,4.698 0.06,5.912 -0.105,10.236 -0.364,9.53 10.8,14.056 17.814,8.386 1.313,-1.063 2.628,-2.124 3.942,-3.186 11.625,-6.866 17.968,-21.169 24.679,-32.425 2.209,-3.704 4.25,-7.484 6.329,-11.245 -0.518,3.311 -0.958,6.626 -1.036,10.025 -0.055,2.405 -0.077,4.811 -0.064,7.217 0.006,1.113 -0.01,2.234 0.04,3.347 0.121,2.702 0.868,4.885 1.964,6.955 0.227,1.164 0.449,2.329 0.689,3.49 1.656,8.017 13.33,10.43 17.662,3.215 0.532,-0.887 1.079,-1.764 1.621,-2.645 1.544,-1.246 2.884,-2.688 3.822,-4.66 0.665,-1.401 1.292,-2.814 1.927,-4.228 l 0.236,-0.514 c 1.815,3.906 5.302,6.922 9.767,7.718 7.041,1.255 12.436,-2.818 15.203,-9.062 2.282,-5.151 4.565,-10.304 6.847,-15.456 2.368,-5.345 3.856,-10.96 5.536,-16.554 0.509,-1.692 0.841,-3.329 1.214,-4.979 0.895,3.959 1.697,8.007 3.479,11.678 1.165,2.401 2.529,4.771 3.85,7.092 2.662,4.681 6.101,8.792 11.538,10.32 4.311,1.212 8.149,1.416 12.321,-0.337 6.879,-2.891 10.314,-8.207 12.25,-15.093 0.628,-2.235 1.257,-4.468 1.769,-6.727 2.231,2.424 4.649,4.695 7.049,6.98 2.885,2.749 5.875,4.602 9.866,5.314 3.602,0.642 7.625,0.367 10.899,-1.5 6.684,-3.811 10.688,-11.396 8.96,-19.116 -1.337,-5.972 -2.074,-12.162 -4.566,-17.793 -1.777,-4.017 -3.676,-7.977 -5.44,-12.002 h 10e-4 c 4.013,0.715 7.989,1.365 12.065,1.55 4.579,0.205 9.977,0.354 14.267,-1.005 4.426,-1.404 8.821,-3.026 13.014,-5.034 7.044,-3.376 11.001,-11.503 10.326,-19.035 -0.64,-7.147 -5.827,-15.129 -13.299,-16.833 -2.085,-0.475 -4.14,-1.033 -6.168,-1.714 -3.779,-1.268 -7.531,-1.945 -11.493,-2.612 l 6.115,1.089 c -4.424,-0.815 -8.729,-2.08 -12.918,-3.709 0.759,-1.322 1.617,-2.564 2.346,-3.908 2.235,0.561 4.467,1.134 6.716,1.634 4.792,1.065 9.946,2.655 14.817,2.463 8.252,-0.325 15.697,-1.833 23.561,-4.073 6.287,-1.793 10.98,-6.281 12.154,-12.87 1.109,-6.219 -1.522,-12.639 -6.866,-16.186 -2.511,-1.667 -4.967,-3.394 -7.451,-5.077 -2.669,-1.809 -5.37,-3.566 -8.208,-5.138 l -0.424,-0.177 0.048,-0.002 c 5.813,-0.706 11.516,-2.057 17.08,-3.867 6.763,-2.2 11.562,-7.592 10.893,-15.048 -0.677,-7.548 -6.306,-11.71 -13.387,-12.881 z"
   id="path3" />
	<path
   style="fill:#ffffff"
   d="m 551.245,869.976 c 0.231,-0.209 1.737,-1.796 2.259,-2.875 l 0.319,-0.213 c 1.775,-1.188 3.051,-2.668 3.143,-4.921 0.078,-1.885 -0.886,-4.166 -2.624,-5.096 l -1.132,-0.61 -0.209,-0.109 -0.161,-0.247 c -1.973,-2.866 -4.821,-4.041 -7.923,-5.043 1.474,-1.014 2.946,-2.027 4.385,-3.089 2.547,-1.877 3.11,-5.914 2.116,-8.656 -0.991,-2.735 -3.986,-5.529 -7.137,-5.298 -2.874,0.209 -5.751,0.303 -8.633,0.311 l -0.496,-0.109 0.353,-0.191 c 1.164,-0.624 2.353,-1.209 3.507,-1.85 1.691,-0.939 3.03,-2.141 4.149,-3.539 1.096,-0.871 2.186,-1.787 3.105,-2.834 1.75,-0.943 3.5,-1.885 5.265,-2.798 1.733,-0.896 2.708,-2.963 2.283,-4.87 -0.458,-2.053 -2.164,-3.129 -4.117,-3.443 -1.778,-0.286 -3.561,-0.541 -5.344,-0.801 -1.395,-0.801 -2.993,-1.305 -4.538,-1.739 -1.912,-0.995 -4.022,-1.55 -6.381,-1.706 -1.586,-0.105 -3.173,-0.2 -4.76,-0.281 -1.269,-0.066 -2.516,0.044 -3.769,0.092 0.979,-1.167 1.98,-2.309 2.893,-3.552 2.727,-3.716 5.75,-7.181 8.724,-10.701 2.279,-2.696 1.581,-7.801 -0.783,-10.217 -2.843,-2.903 -6.434,-3.218 -10.1,-1.854 -2.168,0.805 -4.336,1.612 -6.504,2.417 -0.543,0.202 -1.084,0.403 -1.626,0.605 l -0.446,0.18 -0.064,0.018 c 1.305,-2.048 2.467,-4.154 3.026,-6.439 l 0.849,-1.467 c 0.606,-1.046 1.211,-2.093 1.816,-3.139 1.435,-2.479 1.511,-5.372 -0.144,-7.775 -1.48,-2.148 -4.585,-3.729 -7.241,-2.895 -1.791,0.563 -3.63,1.211 -5.478,1.707 -3.051,-0.105 -6.187,1.037 -9.131,2.295 1.449,-2.588 3.016,-5.236 3.534,-8.108 0.422,-0.744 0.84,-1.489 1.267,-2.231 3.869,-6.712 -2.815,-13.977 -9.846,-10.922 -0.885,0.385 -1.766,0.78 -2.648,1.171 -2.541,0.253 -5.13,1.188 -7.639,2.421 0.198,-0.691 0.531,-1.351 0.633,-2.066 0.622,-1.467 1.245,-2.933 1.869,-4.399 2.338,-5.509 -4.858,-11.391 -9.875,-8.363 -1.271,0.766 -2.542,1.533 -3.812,2.3 -3.519,0.977 -6.538,3.394 -9.634,5.393 -0.732,0.472 -1.503,0.939 -2.268,1.406 0.531,-2.123 1.143,-4.218 1.66,-6.351 1.205,-4.976 -0.587,-9.972 -5.369,-12.244 -4.65,-2.21 -9.925,-0.64 -12.893,3.546 -2.408,3.395 -4.827,6.77 -7.201,10.176 0.161,-1.332 0.516,-2.635 0.582,-3.958 0.232,-4.615 -1.145,-7.897 -3.848,-11.667 -1.972,-2.751 -6.299,-3.737 -9.425,-3.019 -8.216,1.884 -12.546,9.455 -15.563,16.726 l -0.478,1.285 c -0.737,-2.419 -1.494,-4.832 -2.188,-7.265 -0.775,-2.715 -1.377,-5.575 -2.762,-8.045 -0.836,-1.492 -2.095,-3.08 -3.177,-4.486 -0.449,-0.622 -0.521,-0.709 -0.28,-0.352 l -0.34,-0.496 c -2.319,-3.395 -5.289,-5.63 -9.657,-5.239 -3.961,0.355 -7.216,2.982 -8.54,6.747 -0.54,1.536 -1.12,3.067 -1.656,4.608 l -0.064,-0.123 c -2.078,-3.358 -4.257,-6.659 -6.383,-9.987 -2.386,-3.734 -6.425,-5.768 -10.799,-4.182 -1.728,0.626 -3.437,1.765 -4.4,3.393 -1.285,2.174 -1.467,4.242 -1.224,6.731 0.246,2.518 0.492,5.035 0.737,7.553 -1.059,-2.147 -2.107,-4.3 -3.111,-6.475 -3.86,-8.349 -16.575,-4.954 -17.005,3.752 -0.076,1.533 -0.107,3.068 -0.16,4.601 -1.065,-0.078 -2.18,-0.005 -3.363,0.258 -3.833,0.855 -8.159,4.113 -8.972,8.193 -0.411,2.061 -1.003,4.126 -0.941,6.233 0.035,1.158 0.187,2.324 0.274,3.478 0.279,3.755 0.594,7.39 1.463,11.055 0.766,3.225 1.426,6.476 2.119,9.719 l -0.015,-0.016 -0.746,-0.675 -0.424,-0.48 c -0.799,-0.992 -1.604,-1.983 -2.411,-2.97 -1.709,-2.09 -3.437,-4.164 -5.178,-6.227 -6.124,-7.257 -18.977,-0.767 -16.523,8.505 0.802,3.027 1.58,6.059 2.326,9.098 l 0.249,1.021 c -1.348,-0.632 -2.687,-1.292 -4.04,-1.888 -2.304,-1.014 -5.346,-0.58 -7.585,0.232 -2.317,0.84 -4.609,2.367 -5.9,4.55 -2.554,4.318 -2.712,10.604 1.099,14.352 2.924,2.875 5.603,6.017 8.158,9.254 -2.079,-0.73 -4.215,-1.32 -6.344,-1.936 -4.415,-1.275 -9.059,-0.004 -12.065,3.497 -2.997,3.493 -3.599,8.427 -1.555,12.585 1.788,3.641 3.385,7.209 5.892,10.412 l -1.132,-0.166 c -3.961,-0.242 -7.914,-0.163 -11.881,-0.14 -4.174,0.024 -8.581,2.543 -9.739,6.808 -1.17,4.306 0.327,8.59 3.971,11.199 3.221,2.306 6.399,4.652 9.768,6.738 4.178,2.588 8.679,4.266 13.258,5.989 0.988,0.371 1.976,0.743 2.964,1.115 -1.201,0.075 -2.432,0.073 -3.614,0.179 -8.879,0.796 -17.493,5.094 -24.99,9.774 -3.373,2.106 -5.888,6.038 -4.774,10.184 1.069,3.977 4.4,6.988 8.608,7.199 3.634,0.183 7.279,0.567 10.911,1.039 -1.536,0.689 -2.995,1.486 -4.163,2.618 l -1.102,0.62 c -2.983,1.681 -4.764,4.763 -4.455,8.213 0.307,3.428 2.546,6.054 5.738,7.263 l 1.096,0.414 c 3.665,2.584 8.943,2.814 13.289,3.455 2.126,0.313 4.288,0.336 6.449,0.335 -1.144,0.685 -2.306,1.351 -3.434,2.048 -3.803,2.348 -7.558,4.769 -11.086,7.521 -2.391,1.865 -5.126,4.013 -6.967,6.573 -1.827,1.415 -3.654,2.83 -5.481,4.245 -2.681,2.077 -3.425,6.711 -1.767,9.619 1.759,3.085 5.286,4.969 8.855,4.151 2.075,-0.475 4.15,-0.952 6.224,-1.428 3.459,0.208 7.246,-0.708 10.33,-1.415 2.545,-0.584 4.992,-1.423 7.455,-2.242 -0.285,0.599 -0.57,1.2 -0.854,1.798 -0.461,1.27 -0.576,2.555 -0.348,3.855 0.182,2.036 0.919,4.186 2.39,5.689 3.001,3.066 7.863,4.313 11.783,2.164 2.968,-1.627 5.996,-3.137 9.089,-4.515 3.034,-1.352 6.271,-2.356 9.229,-3.851 l 0.632,0.754 c -0.949,0.688 -1.92,1.355 -2.818,2.092 -2.972,2.441 -5.746,5.18 -8.603,7.755 l -4.015,3.619 c -0.762,0.688 -1.558,1.352 -2.294,2.068 -0.885,0.862 -1.553,1.712 -2.129,2.625 -0.994,1.08 -1.988,2.16 -2.983,3.24 -2.348,2.552 -3.629,6.352 -1.766,9.619 1.617,2.837 5.46,5.35 8.855,4.151 0.924,-0.326 1.849,-0.652 2.773,-0.979 l 1.386,-0.489 c 0.885,-0.218 0.927,-0.305 0.128,-0.26 -0.995,-0.005 -0.755,-0.048 0.719,-0.13 2.166,-0.195 4.227,-1.136 6.24,-2.101 -0.995,1.012 -1.826,2.16 -2.302,3.644 -0.734,2.291 -0.593,5.351 0.62,7.478 1.256,2.204 3.204,4.165 5.726,4.851 2.663,0.722 4.919,0.36 7.479,-0.621 4.561,-1.746 9.098,-3.557 13.605,-5.441 4.356,-1.821 8.895,-3.525 13.074,-5.728 2.047,-1.078 4.019,-2.335 6.004,-3.522 0.919,-0.55 1.86,-1.111 2.796,-1.669 -0.581,0.977 -1.166,1.957 -1.737,2.93 -0.738,1.257 -1.476,2.515 -2.214,3.773 -0.368,0.628 -0.756,1.248 -1.107,1.886 -1.026,1.591 -1.571,3.336 -1.844,5.169 -0.266,0.875 -0.532,1.75 -0.798,2.625 -1.262,4.151 0.037,8.617 3.313,11.429 3.019,2.591 8.328,3.794 11.922,1.474 1.036,-0.67 2.072,-1.339 3.108,-2.007 0.784,-0.358 1.508,-0.804 2.203,-1.299 -0.378,2.992 0.038,3.765 -0.067,6.519 -0.232,6.07 6.878,8.952 11.346,5.341 0.836,-0.676 1.673,-1.353 2.511,-2.029 7.404,-4.373 11.443,-13.483 15.718,-20.652 1.407,-2.36 2.707,-4.766 4.031,-7.161 -0.33,2.109 -0.61,4.22 -0.66,6.385 -0.035,1.532 -0.048,3.064 -0.041,4.596 0.004,0.709 -0.006,1.423 0.026,2.132 0.077,1.72 0.553,3.111 1.251,4.43 0.144,0.742 0.286,1.483 0.438,2.222 1.055,5.106 8.49,6.643 11.249,2.047 0.34,-0.565 0.688,-1.124 1.033,-1.684 0.984,-0.794 1.837,-1.712 2.434,-2.969 0.424,-0.891 0.823,-1.791 1.228,-2.692 l 0.15,-0.328 c 1.156,2.488 3.377,4.409 6.221,4.915 4.484,0.8 7.921,-1.795 9.682,-5.771 1.454,-3.281 2.907,-6.562 4.361,-9.844 1.509,-3.404 2.456,-6.981 3.526,-10.543 0.324,-1.077 0.536,-2.12 0.773,-3.171 0.57,2.521 1.081,5.099 2.216,7.437 0.742,1.529 1.611,3.04 2.452,4.518 1.695,2.981 3.886,5.599 7.349,6.572 2.746,0.773 5.19,0.902 7.847,-0.214 4.382,-1.841 6.569,-5.227 7.802,-9.612 0.4,-1.424 0.801,-2.846 1.127,-4.285 1.421,1.544 2.961,2.99 4.49,4.446 1.838,1.751 3.741,2.931 6.284,3.385 2.293,0.409 4.856,0.234 6.941,-0.956 4.257,-2.427 6.807,-7.258 5.707,-12.175 -0.852,-3.805 -1.321,-7.746 -2.908,-11.333 -1.132,-2.558 -2.342,-5.081 -3.464,-7.644 h 0.001 c 2.556,0.456 5.089,0.87 7.685,0.987 2.916,0.131 6.354,0.226 9.087,-0.64 2.819,-0.894 5.618,-1.927 8.288,-3.207 4.486,-2.149 7.007,-7.325 6.577,-12.123 -0.408,-4.552 -3.712,-9.636 -8.47,-10.721 -1.328,-0.303 -2.637,-0.658 -3.929,-1.092 -2.407,-0.808 -4.796,-1.239 -7.32,-1.663 l 3.895,0.694 c -2.818,-0.519 -5.559,-1.326 -8.228,-2.364 0.484,-0.842 1.03,-1.633 1.494,-2.489 1.423,0.357 2.845,0.722 4.278,1.041 3.051,0.678 6.334,1.691 9.437,1.569 5.255,-0.207 9.997,-1.167 15.006,-2.594 4.004,-1.142 6.993,-4.001 7.742,-8.197 0.706,-3.961 -0.97,-8.05 -4.374,-10.309 -3.318,-2.203 -6.483,-4.573 -9.973,-6.506 l -0.269,-0.112 0.031,-10e-4 c 3.702,-0.45 7.334,-1.31 10.878,-2.463 4.307,-1.402 7.364,-4.836 6.938,-9.585 -0.43,-4.809 -4.015,-7.46 -8.525,-8.205 2.435,0.401 -0.722,-0.159 -1.171,-0.262 -0.953,-0.218 -1.901,-0.463 -2.841,-0.732 -1.571,-0.45 -3.11,-0.988 -4.672,-1.453 1.416,-0.279 2.825,-0.564 4.259,-0.988 2.983,-0.89 6.139,-1.659 8.524,-3.8 z"
   id="path4" />
	<path
   style="fill:#6a4f9b"
   d="m 2027.478,1029.102 c -76.692,-8.183 -153.801,-12.24 -230.911,-12.24 -191.048,0 -382.091,24.94 -566.795,73.781 -45.022,-25.479 -83.148,-61.272 -110.773,-111.716 -45.931,-91.862 69.26,-145.624 158.344,-189.253 18.266,-5.814 36.668,-11.2 55.214,-16.047 3.688,-0.965 5.897,-4.737 4.933,-8.424 -0.965,-3.689 -4.736,-5.897 -8.424,-4.933 -26.643,6.965 -53.009,14.962 -79.059,23.882 -51.116,10.645 -105.15,22.956 -160.249,33.883 30.706,-24.081 63.42,-45.597 97.779,-64.083 3.357,-1.807 4.614,-5.992 2.808,-9.35 -1.807,-3.357 -5.993,-4.615 -9.35,-2.808 -42.704,22.977 -82.95,50.469 -119.965,81.78 -25.981,4.856 -52.122,9.281 -78.236,12.977 4.43,2.423 7.507,3.916 7.507,3.916 0,0 -12.463,-1.545 -26.098,-1.411 -7.745,0.988 -15.484,1.907 -23.211,2.743 -0.895,0.268 -1.787,0.539 -2.604,0.857 -16.913,6.547 -31.595,41.195 -31.595,41.195 0,0 1.785,-20.672 -0.03,-38.881 -115.085,8.718 -225.898,-3.229 -315.567,-63.605 -0.011,-0.008 -0.023,-0.015 -0.035,-0.022 -2.092,1.087 -4.148,2.169 -6.202,3.25 -0.272,0.143 -0.55,0.287 -0.822,0.431 -4.442,5.243 -8.929,10.431 -12.997,15.974 -1.433,1.952 -3.005,3.745 -4.542,5.577 1.968,-0.078 3.925,-0.249 5.917,-0.146 2.493,0.129 4.984,0.276 7.475,0.442 3.703,0.247 7.016,1.117 10.018,2.68 2.425,0.682 4.934,1.472 7.125,2.729 2.799,0.41 5.599,0.809 8.391,1.258 3.067,0.494 5.746,2.183 6.464,5.407 0.668,2.994 -0.864,6.239 -3.584,7.646 -2.772,1.434 -5.519,2.913 -8.266,4.393 -1.444,1.646 -3.155,3.083 -4.876,4.452 -1.756,2.194 -3.859,4.081 -6.513,5.556 -1.813,1.007 -3.679,1.926 -5.508,2.905 l -0.552,0.3 0.778,0.171 c 4.525,-0.014 9.042,-0.16 13.554,-0.488 4.947,-0.361 9.65,4.024 11.206,8.318 1.56,4.304 0.675,10.643 -3.323,13.591 -2.26,1.667 -4.571,3.258 -6.884,4.849 4.871,1.574 9.341,3.418 12.439,7.919 l 0.253,0.387 0.327,0.171 c 0.592,0.322 1.185,0.64 1.779,0.957 2.728,1.46 4.241,5.041 4.118,8 -0.146,3.539 -2.148,5.862 -4.935,7.727 l -0.501,0.335 c -0.819,1.694 -3.183,4.187 -3.546,4.514 -3.745,3.361 -8.7,4.569 -13.388,5.96 -2.25,0.667 -4.464,1.114 -6.686,1.551 2.452,0.729 4.867,1.574 7.335,2.281 1.476,0.423 2.964,0.807 4.461,1.15 0.705,0.161 5.662,1.042 1.839,0.411 7.081,1.171 12.71,5.333 13.385,12.883 0.669,7.456 -4.13,12.848 -10.893,15.048 -5.564,1.811 -11.267,3.162 -17.08,3.867 l -0.048,0.002 0.424,0.177 c 2.838,1.572 5.539,3.329 8.208,5.138 20.284,1.43 41.551,2.415 63.22,3.028 7.83,0.221 15.708,0.395 23.608,0.527 7.898,0.132 15.817,0.221 23.726,0.273 3.954,0.025 7.907,0.041 11.852,0.048 15.783,0.028 31.466,-0.086 46.815,-0.306 11.511,-0.166 22.833,-0.391 33.866,-0.661 7.355,-0.18 14.582,-0.38 21.65,-0.595 7.069,-0.214 13.978,-0.445 20.701,-0.686 23.529,-0.843 44.756,-1.818 62.412,-2.728 22.12,-1.141 38.577,-2.178 46.98,-2.734 0.167,1.04 0.499,2.059 1.162,2.969 0.34,0.466 0.8,0.766 1.223,1.121 -2.245,2.699 -5.327,6.538 -9.025,11.518 -2.414,3.251 -5.075,6.969 -7.903,11.125 -12.254,18.015 -27.633,44.291 -39.543,76.699 -4.787,13.026 -8.39,33.459 -11.091,57.733 -0.492,4.413 -0.953,8.954 -1.386,13.6 -0.434,4.647 -0.839,9.398 -1.218,14.234 -3.222,41.104 -4.541,88.285 -5.004,128.379 -0.046,3.972 -0.084,7.875 -0.114,11.695 -0.03,3.82 -0.053,7.557 -0.069,11.201 -0.016,3.642 -0.027,7.19 -0.031,10.629 -0.002,1.72 -0.003,3.412 -0.003,5.076 0,4.993 0.011,9.728 0.03,14.164 0.018,4.435 0.045,8.568 0.076,12.358 0.02,2.528 0.042,4.901 0.065,7.11 0.022,2.209 0.046,4.252 0.069,6.116 0.023,1.865 0.046,3.551 0.067,5.046 0.008,0.558 0.016,1.063 0.023,1.567 0.064,4.223 0.112,6.557 0.112,6.557 0,0 26.487,-37.475 101.391,-74.524 3.611,-1.786 7.295,-3.57 11.133,-5.35 98.166,-45.517 265.99,-91.301 467.928,-116.903 16.363,-2.075 45.916,-5.782 45.916,-5.782 -92.259,-3.777 -182.321,-15.362 -256.257,-51.43 179.015,-46.024 363.855,-69.524 548.679,-69.523 76.625,0 153.246,4.032 229.446,12.161 3.79,0.404 7.192,-2.341 7.596,-6.132 0.402,-3.789 -2.344,-7.19 -6.135,-7.594 z"
   id="path5" />
	<path
   style="fill:#ffffff"
   d="m 1462.373,799.69 c -7.913,34.139 -38.722,82.254 -38.722,82.254 0,0 50.921,-41.772 82.499,-38.263 31.483,3.536 82.203,38.706 82.203,38.706 0,0 -41.733,-56.176 -38.231,-82.447 3.489,-26.265 38.705,-82.244 38.705,-82.244 0,0 -46.573,40.922 -82.49,38.242 -35.865,-2.646 -82.217,-38.694 -82.217,-38.694 0,0 46.142,48.306 38.253,82.446 z"
   id="path6" />
	<path
   style="fill:#ffffff"
   d="m 949.094,808.857 c -5.199,-14.254 -2.191,-51.889 -2.191,-51.889 0,0 -12.73,33.033 -31.635,41.202 -18.864,8.143 -51.888,2.178 -51.888,2.178 0,0 36.196,12.229 41.228,31.618 1.013,3.922 1.694,8.388 2.155,13.006 1.815,18.209 0.03,38.881 0.03,38.881 0,0 14.682,-34.648 31.595,-41.195 0.816,-0.318 1.708,-0.589 2.604,-0.857 6.58,-1.973 15.084,-2.663 23.211,-2.743 13.635,-0.134 26.098,1.411 26.098,1.411 0,0 -3.077,-1.493 -7.507,-3.916 -10.848,-5.934 -30.041,-17.599 -33.7,-27.696 z"
   id="path7" />
	<path
   style="fill:#ffffff"
   d="m 1740.895,736.973 c 6.687,6.378 12.301,23.492 12.301,23.492 0,0 0.168,-20.431 5.614,-25.937 5.418,-5.497 23.51,-12.339 23.51,-12.339 0,0 -18.014,1.352 -25.944,-5.603 -7.88,-6.958 -12.303,-23.523 -12.303,-23.523 0,0 2.228,19.384 -5.655,25.945 -7.844,6.564 -23.481,12.328 -23.481,12.328 0,0 19.212,-0.75 25.958,5.637 z"
   id="path8" />
	<path
   style="fill:#ffffff"
   d="m 1848.587,826.768 c 0,0 8.497,-6.96 13.77,-6.372 5.224,0.562 13.717,6.438 13.717,6.438 0,0 -6.987,-9.331 -6.417,-13.732 0.59,-4.394 6.495,-13.692 6.495,-13.692 0,0 -7.744,6.815 -13.746,6.37 -5.997,-0.464 -13.729,-6.471 -13.729,-6.471 0,0 7.694,8.069 6.408,13.757 -1.369,5.682 -6.498,13.702 -6.498,13.702 z"
   id="path9" />
	<path
   style="fill:#ffffff"
   d="m 982.666,1069.515 c 5.068,19.38 2.202,51.902 2.202,51.902 0,0 14.708,-34.651 31.615,-41.219 16.895,-6.58 51.881,-2.209 51.881,-2.209 0,0 -36.035,-17.376 -41.184,-31.604 -5.215,-14.248 -2.225,-51.899 -2.225,-51.899 0,0 -12.688,33.056 -31.615,41.218 -18.879,8.158 -51.871,2.202 -51.871,2.202 0,0 36.195,12.24 41.197,31.609 z"
   id="path10" />
	<path
   style="fill:#ffffff"
   d="m 724.644,885.62 c -7.882,-6.948 -12.324,-23.51 -12.324,-23.51 0,0 2.195,19.383 -5.633,25.932 -7.855,6.551 -23.533,12.331 -23.533,12.331 0,0 19.255,-0.766 25.942,5.651 6.754,6.36 12.367,23.474 12.367,23.474 0,0 0.171,-20.44 5.562,-25.925 5.54,-5.497 23.535,-12.341 23.535,-12.341 0,0 -18.029,1.32 -25.916,-5.612 z"
   id="path11" />
	<path
   style="fill:#ffffff"
   d="m 1035.598,685.074 c 6.737,6.375 12.35,23.489 12.35,23.489 0,0 0.168,-20.43 5.613,-25.928 5.432,-5.501 23.513,-12.348 23.513,-12.348 0,0 -18.027,1.348 -25.944,-5.602 -7.892,-6.961 -12.303,-23.493 -12.303,-23.493 0,0 2.212,19.359 -5.658,25.885 -7.863,6.578 -23.535,12.341 -23.535,12.341 0,0 19.297,-0.705 25.964,5.656 z"
   id="path12" />
	<path
   style="fill:#ffffff"
   d="m 1424.347,619.469 c 6.737,6.375 12.35,23.49 12.35,23.49 0,0 0.168,-20.432 5.613,-25.929 5.432,-5.501 23.513,-12.348 23.513,-12.348 0,0 -18.028,1.348 -25.944,-5.602 -7.891,-6.962 -12.303,-23.493 -12.303,-23.493 0,0 2.211,19.358 -5.658,25.884 -7.863,6.579 -23.535,12.341 -23.535,12.341 0,0 19.297,-0.705 25.964,5.657 z"
   id="path13" />
	<path
   style="fill:#ffffff"
   d="m 1220.379,681.988 c 0,0 8.513,-6.935 13.764,-6.354 5.229,0.574 13.709,6.464 13.709,6.464 0,0 -6.949,-9.368 -6.399,-13.755 0.563,-4.383 6.457,-13.685 6.457,-13.685 0,0 -7.72,6.821 -13.704,6.393 -5.994,-0.471 -13.752,-6.479 -13.752,-6.479 0,0 7.72,8.029 6.374,13.748 -1.293,5.677 -6.449,13.668 -6.449,13.668 z"
   id="path14" />
	<path
   style="fill:#ffffff"
   d="m 1592.045,635.244 c 3.319,4.792 5.824,13.987 5.824,13.987 0,0 0.563,-10.969 4.521,-14.463 3.953,-3.505 13.963,-5.824 13.963,-5.824 0,0 -11.625,-1.125 -14.474,-4.527 -2.814,-3.362 -5.832,-13.961 -5.832,-13.961 0,0 -0.14,10.331 -4.465,14.471 -4.343,4.114 -14.002,5.802 -14.002,5.802 0,0 11.125,-0.285 14.465,4.515 z"
   id="path15" />
	<path
   style="fill:#ffffff"
   d="m 773.446,733.099 c 0,0 -0.15,10.329 -4.491,14.444 -4.338,4.176 -14.011,5.828 -14.011,5.828 0,0 11.164,-0.292 14.474,4.488 3.346,4.821 5.813,13.983 5.813,13.983 0,0 0.571,-10.957 4.535,-14.429 3.961,-3.532 13.947,-5.85 13.947,-5.85 0,0 -11.592,-1.113 -14.446,-4.468 -2.837,-3.398 -5.821,-13.996 -5.821,-13.996 z"
   id="path16" />
	<path
   style="fill:#ffffff"
   d="m 1989.251,958.54 c 18.066,10.688 39.073,45.66 39.073,45.66 0,0 -9.926,-45.213 -0.667,-60.094 9.257,-14.876 45.664,-39.05 45.664,-39.05 0,0 -39.152,12.014 -60.078,0.651 -20.932,-11.353 -39.091,-45.665 -39.091,-45.665 0,0 14.702,41.666 0.69,60.086 -14.05,18.434 -45.677,39.068 -45.677,39.068 0,0 42.029,-11.352 60.086,-0.656 z"
   id="path17" />
	<path
   style="fill:#ffffff"
   d="m 1313.51,975.034 c -4.34,-9.584 -1.599,-26.522 -1.599,-26.522 0,0 -5.916,18.619 -15.79,21.349 -9.861,2.772 -26.457,1.594 -26.457,1.594 0,0 17.835,7.21 21.312,15.765 3.511,8.574 1.589,26.518 1.589,26.518 0,0 8.57,-18.563 15.783,-21.332 7.238,-2.76 26.492,-1.582 26.492,-1.582 0,0 -16.985,-6.205 -21.33,-15.79 z"
   id="path18" />
	<path
   style="fill:#ffffff"
   d="m 1186.352,876.828 c -5.25,-2.872 -9.821,-11.51 -9.821,-11.51 0,0 3.709,10.484 0.145,15.146 -3.558,4.643 -11.514,9.842 -11.514,9.842 0,0 10.597,-2.865 15.168,-0.161 4.539,2.694 9.87,11.524 9.87,11.524 0,0 -2.512,-11.419 -0.193,-15.16 2.324,-3.749 11.516,-9.843 11.516,-9.843 0,0 -9.865,3.013 -15.171,0.162 z"
   id="path19" />
	<path
   style="fill:#ffffff"
   d="m 1774.333,931.524 c -4.296,-9.57 -1.551,-26.477 -1.551,-26.477 0,0 -5.914,18.58 -15.774,21.334 -9.869,2.761 -26.499,1.58 -26.499,1.58 0,0 17.833,7.211 21.329,15.781 3.513,8.594 1.569,26.503 1.569,26.503 0,0 8.593,-18.566 15.787,-21.351 7.215,-2.757 26.534,-1.558 26.534,-1.558 0,0 -17.007,-6.212 -21.395,-15.812 z"
   id="path20" />
	<path
   style="fill:#ffffff"
   d="m 1526.914,969.374 c -1.222,-4.221 0.426,-15.111 0.426,-15.111 0,0 -4.398,9.355 -10.052,11.314 -5.648,2 -15.132,-0.403 -15.132,-0.403 0,0 10.282,4.285 11.368,10.03 1.022,5.713 -0.485,15.14 -0.485,15.14 0,0 5.022,-9.78 10.07,-11.337 5.081,-1.547 15.165,0.435 15.165,0.435 0,0 -10.138,-5.808 -11.36,-10.068 z"
   id="path21" />
	<path
   style="fill:#453163"
   d="m 1504.146,1151.621 c 0,0 -29.553,3.706 -45.916,5.782 -201.939,25.602 -369.762,71.385 -467.928,116.903 -3.838,1.779 -7.523,3.564 -11.133,5.35 131.959,101.338 925.064,33.583 1084.365,-146.109 -139.386,-30.26 -375.403,-4.842 -559.388,18.074 z"
   id="path22" />
	<path
   style="fill:#27224f"
   d="m 961.145,949.764 v 0 c 95.87,-69.896 203.14,-124.109 316.199,-160.09 18.266,-5.814 36.668,-11.2 55.214,-16.047 3.688,-0.965 5.897,-4.737 4.933,-8.424 -0.965,-3.689 -4.736,-5.897 -8.424,-4.933 -26.643,6.965 -53.009,14.962 -79.059,23.882 -90.953,31.149 -177.869,74.028 -257.913,127.282 29.359,-34.254 62.158,-65.552 97.664,-93.398 30.706,-24.081 63.42,-45.597 97.779,-64.083 3.357,-1.807 4.614,-5.992 2.808,-9.35 -1.807,-3.357 -5.993,-4.615 -9.35,-2.808 -42.704,22.977 -82.95,50.469 -119.965,81.78 -37.647,31.846 -71.952,67.644 -102.062,106.708 -1.156,1.5 -1.593,3.324 -1.376,5.066 -1.52,1.096 -3.067,2.154 -4.582,3.258 -2.172,1.583 -3.073,4.194 -2.674,6.677 0.167,1.04 0.499,2.059 1.162,2.969 0.34,0.466 0.8,0.766 1.223,1.121 2.375,1.986 5.808,2.297 8.423,0.39 z"
   id="path23" />
	<path
   style="fill:#27224f"
   d="m 2026.014,1042.83 c 3.79,0.404 7.192,-2.341 7.596,-6.132 0.404,-3.791 -2.341,-7.192 -6.132,-7.596 -76.692,-8.183 -153.801,-12.24 -230.911,-12.24 -191.048,0 -382.091,24.94 -566.795,73.781 -107.255,28.361 -212.379,64.76 -314.11,109.072 -3.496,1.523 -5.096,5.59 -3.573,9.087 1.523,3.495 5.591,5.096 9.087,3.573 v -10e-4 c 105.685,-46.036 215.069,-83.478 326.713,-112.182 179.015,-46.024 363.855,-69.524 548.679,-69.523 76.625,0 153.246,4.032 229.446,12.161 z"
   id="path24" />
</g></g>
</svg>
